<?xml version="1.0" encoding="UTF-8"?><svg id="a" xmlns="http://www.w3.org/2000/svg" xmlns:xlink="http://www.w3.org/1999/xlink" viewBox="0 0 457.05991507 57.51364136"><defs><style>.d{fill:none;}.e{fill:#313b47;}.f{clip-path:url(#c);}.g{clip-path:url(#b);}</style><clipPath id="b"><rect class="d" x="112.71368112" width="57.51364136" height="57.51364136"/></clipPath><clipPath id="c"><rect class="d" x="112.71368112" width="57.51364136" height="57.51364136"/></clipPath></defs><path class="e" d="M210.42635899,42.70840609c0,1.37528685-.28794654,2.66273088-.8638288,3.86183642-.57539471,1.19959309-1.51095824,2.23911294-2.80621389,3.1180666-1.2957432.88041631-2.97458088,1.57636026-5.03751521,2.08782101-2.06293434.51048566-4.59828216.76719655-7.6041041.76719655-1.69592898,0-3.3508605-.1278679-4.96577506-.38359828-1.61540211-.25670548-3.1507649-.62371083-4.60560623-1.10394135-1.45581643-.47925001-2.79937737-1.06294389-4.03021152-1.75010111-1.23131629-.68813233-2.29523527-1.44751726-3.19029972-2.27962286l1.51354767-1.81625612c.48090226-.57708217,1.32490406-.6759761,1.92939462-.23001487,1.57726493,1.16361737,3.35612603,2.07733329,5.33684332,2.74221494,2.42993427.81550726,5.10096161,1.22302253,8.01210151,1.22302253,3.22982912,0,5.51677064-.44753223,6.860337-1.34307881,1.34356636-.89505903,2.01510576-2.12686287,2.01510576-3.69443911,0-1.21472336-.52805368-2.23813784-1.58319136-3.07024073-1.05562523-.83161534-2.84720595-1.64712531-5.37328492-2.44701745l-9.11555531-2.8784416c-3.00679704-.95948053-5.27763318-2.1829879-6.81250842-3.67003728-1.53536279-1.48753692-2.30304689-3.3825837-2.30304689-5.68514304,0-1.18300287.27964737-2.32696118.83942426-3.43041227.55928933-1.1034511,1.43141189-2.07854945,2.6148996-2.92627017,1.18300016-.84723181,2.69396382-1.51877122,4.53386608-2.01510441,1.83892174-.49535809,4.05363555-.74376846,6.64462357-.74376846,1.56659844,0,3.12587822.12835409,4.67783393.38408447,1.55098061.25621928,3.03803269.62371083,4.46163296,1.1034511,1.42262517.47974027,2.75009157,1.06343279,3.98188998,1.75107621,1.23083415.68813233,2.29475314,1.44751726,3.1902943,2.27864505l-1.51054653,1.81265503c-.48005176.57605831-1.32703302.68106016-1.92729274.23164003-1.55226991-1.16219806-3.25279269-2.07571083-5.10183378-2.7397474-2.27132369-.81550997-4.86182416-1.22350873-7.77198895-1.22350873-2.39870404,0-4.19809096.41580767-5.39720191,1.24742301-1.19959309.83210289-1.79939234,1.85502982-1.79939234,3.07024073,0,.67202695.11176252,1.25571812.3357697,1.75107621.22351963.49633319.59979925.95948053,1.12785293,1.39139222.52756613.43191169,1.22302253.83210289,2.08684592,1.19959579.86333583.36798045,1.93457889.75987248,3.2142113,1.17519396l9.06772674,2.8784416c2.90967725.92824488,5.19710631,2.1434585,6.86033158,3.64661325,1.66273772,1.5036423,2.49484332,3.40601044,2.49484332,5.70905462l.00002167.00000271Z"/><path class="e" d="M239.65147607,26.59635484h-9.37431391c-.78429328,0-1.42008991.63579663-1.42008991,1.42008991v23.56740139h-5.79690556v-23.56740139c0-.78429328-.63579663-1.42008991-1.42008991-1.42008991h-9.37480146v-2.99849787h27.38618992v2.99849787h.00001083Z"/><path class="e" d="M257.84305188,23.59785426l11.39468521,27.98599188h-4.78537103c-.58594744,0-1.11173131-.35988172-1.32380436-.90609931l-1.93520187-4.98420442c-.21207306-.5462176-.73786776-.90609931-1.32380436-.90609931h-13.24852053c-.58597994,0-1.11178548.35991964-1.32383687.90618057l-1.93477933,4.98403649c-.21205139.54626093-.73786776.90618057-1.32383687.90618057h-4.78530602l11.39419766-27.98599188h9.19558922l-.00001083.00000542ZM247.04864805,41.78894522h12.39369514l-5.99699575-14.79288673h-.39970365l-5.99699575,14.79288673Z"/><path class="e" d="M284.42935779,43.61628496v7.96756118h-5.79690556v-7.96756118c0-.27921941-.08230914-.55224425-.23664554-.78493251l-12.75684344-19.23349819h5.63417248c.47646556,0,.92118625.23894785,1.18417028.6362598l8.97355932,13.55683038h.20009018l8.97452359-13.55688726c.26299486-.39728216.70769388-.63620292,1.18413778-.63620292h5.63324072l-12.75684344,19.23349819c-.1543364.23268826-.23664554.50571309-.23664554.78493251h-.00001083Z"/><path class="e" d="M307.73798974,23.01894649v10.09416673h17.51077297v3.59829712h-16.09068306c-.78430411,0-1.42008991.63579663-1.42008991,1.42008991v13.4523513h-6.9564817V18.00055945h30.22412702v3.59829712h-21.84755541c-.78430411,0-1.42008991.63579528-1.42008991,1.42008991Z"/><path class="e" d="M347.1159501,22.79844966c2.39919701,0,4.57778342.31966433,6.53677769.95948053,1.9589726.63932866,3.63783195,1.58611937,5.0375098,2.83842193,1.39969952,1.25327767,2.48509234,2.79840498,3.25812864,4.63781427.77305798,1.83892445,1.1595653,3.9579784,1.1595653,6.35668244s-.38652899,4.51775799-1.1595653,6.35668244c-.77305798,1.83940929-1.85845079,3.38551441-3.25812864,4.63781698-1.39969952,1.25327767-3.0785372,2.19909599-5.0375098,2.83842464-1.9589726.64030375-4.13758069.95948053-6.53675602.95948053s-4.58460911-.31917678-6.55627966-.95948053c-1.97362074-.63932866-3.65833068-1.58514156-5.05800853-2.83842464-1.39872442-1.25230257-2.47824498-2.79840227-3.23860501-4.63781427-.75938493-1.83892445-1.13908823-3.95798111-1.13908823-6.35667974s.3797033-4.51775799,1.13908823-6.35668244c.76036003-1.839412,1.83990226-3.3845366,3.23860501-4.63781427,1.39969952-1.25230257,3.08438779-2.19909328,5.05800853-2.83842193,1.97167055-.6398162,4.15710432-.95948053,6.55627966-.95948053l-.00002167-.00000542ZM347.1159501,25.59685464c-1.35967715,0-2.6324622.24011526-3.81839849.71985553s-2.21860879,1.21277046-3.09806083,2.19860573c-.87945204.98632282-1.57929097,2.23276938-2.09856335,3.73836188-.52024748,1.50608275-.77988367,3.28497635-.77988367,5.33717106,0,2.05268226.25963619,3.83206612.77988367,5.33717106.51927238,1.50608275,1.2191113,2.7525266,2.09856335,3.73836188.87945204.98632282,1.91212454,1.71886546,3.09806083,2.19860844s2.45872134.71985553,3.81839849.71985553,2.6314871-.24011255,3.81839849-.71985553c1.18496119-.47974297,2.21860879-1.21228562,3.09806083-2.19860844.87945204-.98583527,1.57929097-2.23228184,2.09856335-3.73836188.52024748-1.50510494.77988367-3.2844888.77988367-5.33717106,0-2.05219471-.25963619-3.83109102-.77988367-5.33717106-.51927238-1.5055952-1.2191113-2.75203905-2.09856335-3.73836188-.87945204-.98583527-1.91309964-1.71886546-3.09806083-2.19860573-1.18691139-.47974027-2.45872134-.71985553-3.81839849-.71985553Z"/><path class="e" d="M382.29851727,23.59785426c1.99899497,0,3.79107407.22010408,5.37719073.65982468,1.58514156.4397206,2.92431997,1.07953681,4.01751358,1.91896106s1.93262328,1.86576403,2.51924245,3.0785372c.58564407,1.21277316.87945204,2.59245337.87945204,4.13757798,0,2.13272158-.53392052,3.93211392-1.5988146,5.39768946-1.06684428,1.46606309-2.59928719,2.58561956-4.59828216,3.35818186l6.59727713,9.43521964h-6.59727713l-5.87693947-8.39569978h-7.89556642c-.78430411,0-1.42008991.63579663-1.42008991,1.42008991v6.97560987h-5.79689473v-27.98599188h14.3931885ZM373.70224517,28.01644475v12.17320374h8.5962721c2.10538904,0,3.73152806-.55294578,4.87744198-1.65932487,1.14591392-1.105404,1.71886005-2.81841346,1.71886005-5.13756572,0-2.31866472-.57294613-4.03069636-1.71886005-5.13707817-1.14591392-1.10589155-2.77205295-1.65932487-4.87744198-1.65932487h-7.17620386c-.78430411,0-1.42008991.63579663-1.42008991,1.42008991h.00002167Z"/><path class="e" d="M414.28154838,22.79844966c2.42457123,0,4.71737417.41336857,6.87643695,1.2391252,2.15908445.82673443,3.99798994,1.94580336,5.5167598,3.35818186l-1.99899497,2.39918888c-1.51876986-1.41237851-3.11173388-2.43188718-4.77689851-3.05852872-1.6661614-.62615128-3.40552018-.93947206-5.21809801-.93947206-1.35870205,0-2.61196347.23328145-3.75787739.69935679-1.14591392.4665629-2.13858572,1.17958461-2.97799372,2.13906514-.84040477.95948053-1.49339564,2.1790848-1.9589726,3.65832526-.46657373,1.47924046-.69983893,3.24495669-.69983893,5.29715411,0,2.10587929.24011255,3.91161519.71936256,5.41721039.48022511,1.50608275,1.14591392,2.74569821,1.99899497,3.7183534.85308105.97314816,1.88577522,1.69299827,3.09806083,2.15858607,1.21326071.46753799,2.53876608.69984434,3.97848797.69984434,1.19958767,0,2.23228184-.10639407,3.09806083-.32015188.865779-.21278271,1.59294235-.4655878,2.17958319-.75938493.69203814-.31966433,1.26498426-.69252569,1.71886005-1.11955918v-6.17571773c0-.78429328-.6357858-1.42008991-1.42008991-1.42008991h-3.77750937v-2.59879693h10.99449401v10.99449401c-.98582444.79940189-2.13271346,1.5055952-3.43774176,2.11856912-1.1195646.53391511-2.49874371,1.01316511-4.13855579,1.43971106-1.63883697.42557084-3.51191424.63932866-5.61730328.63932866-2.39822191,0-4.55728469-.31917678-6.47625659-.95948053-1.9189719-.63932866-3.5587623-1.58514156-4.91746435-2.83842464-1.35967715-1.25230257-2.39919701-2.79840227-3.11855957-4.63781427-.71936256-1.83892445-1.07954223-3.95798111-1.07954223-6.35667974s.36017966-4.51775799,1.07954223-6.35668244c.71936256-1.839412,1.73935878-3.3845366,3.05803846-4.63781427,1.31965478-1.25230257,2.91846938-2.19909328,4.79837234-2.83842193,1.87894953-.6398162,3.96383983-.95948053,6.25664277-.95947511Z"/><path class="e" d="M438.46864645,28.01644475v7.77550202h14.59327868v2.99849787h-13.17318877c-.78430411,0-1.42008991.63579663-1.42008991,1.42008991v8.37481372h18.59126862v2.99849787h-24.38818502v-27.98599188h24.38818502v2.99849787h-17.17117871c-.78430411,0-1.42008991.63579663-1.42008991,1.42009262Z"/><g class="g"><g class="f"><path class="e" d="M169.11937781,12.72755528h-16.72155815v-6.17739097c0-.47054658-.38150723-.85205381-.85205449-.85205381h-.38938928c-1.01713864,0-1.9237255.64170275-2.26177585,1.60111489l-1.56064221,4.42897867c-.03206178.09095772-.04846239.1867056-.04846239.28309408v.7162585h-.10650783c-.47054726,0-.85205449.38150723-.85205449.85205449v2.13013487c0,.47054726.38150723.85205449.85205449.85205449h.10650783v5.64485658c0,.47054726.38150723.85205449.85205449.85205449h3.40821524c.47054726,0,.85205449-.38150723.85205449-.85205449v-5.64485793h16.72155815c.47054996,0,.85205178-.38150723.85205178-.85205449v-2.13013487c0-.47054726-.38150182-.85205449-.85205178-.85205449"/><path class="e" d="M154.51756701,40.73239635c.22483601-.27265646.38800518-.70944094.42016988-1.35135902.00468589-.09276707.11609088-.13654086.1821267-.07114697,1.44103556,1.42452661,2.06186444,3.21895407,1.86642222,5.12233523-.16242159,1.58247629-.88836878,3.24025726-2.18200468,4.82422328-.06283967.07700568.0027682.19075632.10075745.17382212,2.09732822-.36340291,3.69492937-1.75192672,4.68864127-3.65967957,2.06601673,1.11821571,3.97696032,2.2931984,3.97696032,2.63668221v3.08869447c0,.17648197-.14303609.31951806-.31951806.31951806h-39.6205093c-.17648332,0-.31952009-.14303609-.31952009-.31951806v-1.02938967c0-1.15634206.69314528-2.20000066,1.75842805-2.64967269,3.64657668-1.53923609,7.08386882-3.03352557,8.98863543-4.19934775.00308917-.00191769.00596435-.00394102.0087339-.00628397,1.17796486-.96569678,1.61730491-2.13599087,1.18872074-3.54667379-.01278056-.04217571-.05250769-.07135824-.0966011-.07135824h-5.0314845c-.47054726,0-.85205449-.38139889-.85205449-.85205449v-1.46361722c0-.01576138-.01171608-.02896855-.02726483-.03110022-7.50851264-.99541291-13.3111056-4.04938575-16.20627961-10.61147808-.02939596-.06656671.01991801-.14208267.09266033-.14208267h16.10935729c.0174678,0,.03152683-.01405767.03152683-.03152547v-2.25613382c0-.14825829.12024588-.26850417.26850281-.26850417l39.49046775.00010834c.43294909,0,.79816134.32474026.84661831.75502408.11662176,1.03727171.15230495,1.92532629-.09020743,2.30203929-.00244858.00372704-.00553639.00660087-.00745409.01054461-.7312696,1.46819476-5.80876926,5.1644026-10.16873196,7.93656389-.55340624-1.21108841-1.31301328-2.35720819-2.29372657-3.36721236-.07839249-.08073273-.21365488.00202333-.17690993.10831718,1.20863712,3.49416745-2.70995814,5.63804037-3.47851171,2.26625047-.1788222-1.78643707.58291109-1.76524223,1.17157526-4.47328267.50654735-2.33004628-.4811975-4.56658334-1.44902595-5.41831821-.06326492-.05569979-.16295519-.01661188-.17520351.06688904-.53338422,3.64657804-1.37926308,3.6694766-5.40521668,9.39868595-2.65415001,3.7770489-2.48054188,9.25330692-.67056431,11.63660711.06635273.08743924.20992513.02865164.19064527-.07945426-1.27744115-7.13712408,4.47392461-8.30869934,4.69417766-12.02652727.00490258-.08169157.12024588-.10607987.17882762-.04899328,1.24410633,1.21322008,1.12407172,3.57830761.50622502,5.84370487-.39460605,1.44689428,1.05761064,2.39789417,1.81061409,1.48470372"/></g></g><path class="e" d="M0,47.48056868l.31738281-.70800781c1.41699219.015625,2.25537109-.31738281,2.51611328-1.00195312.11376953-.32519531.22802734-.93652344.34228516-1.83203125.11376953-.89550781.21972656-2.06738281.31738281-3.51757812.11376953-1.64453125.19140625-3.06152344.23193359-4.25s.06103516-2.13378906.06103516-2.83398438c0-.65136719-.06494141-1.11523438-.1953125-1.39257812-.13037109-.27636719-.51269531-.41503906-1.14794922-.41503906-.29296875,0-.62695312.04882812-1.00146484.14648438l.390625-.73242188c.47216797.06542969,1.57128906.13867188,3.29785156.21972656.22753906,0,.56982422-.015625,1.02587891-.04882812.45556641-.03222656.94042969-.06445312,1.45361328-.09765625.51269531-.03222656.95605469-.04882812,1.33105469-.04882812,1.41699219,0,2.54443359.26464844,3.38330078.79394531.83837891.52929688,1.2578125,1.46972656,1.2578125,2.82128906,0,1.13964844-.29736328,2.13378906-.89160156,2.98046875-.59472656.84667969-1.36767578,1.50195312-2.3203125,1.96582031s-1.97509766.69628906-3.06591797.69628906c-.34179688,0-.70019531-.02441406-1.07470703-.07324219l.390625-.61035156c.91210938.03222656,1.74658203-.12597656,2.50390625-.4765625.75732422-.34960938,1.36816406-.85839844,1.83203125-1.52636719.46435547-.66796875.69628906-1.44921875.69628906-2.34570312,0-.71582031-.16699219-1.31835938-.50097656-1.80761719-.33349609-.48828125-.77783203-.85839844-1.33105469-1.11132812-.55371094-.25195312-1.14794922-.37890625-1.78320312-.37890625-.390625,0-.78173828.04882812-1.17236328.14746094-.21191406.03222656-.375.10546875-.48876953.21972656-.11425781.11425781-.1953125.30078125-.24414062.56152344-.04882812.27734375-.10595703.68359375-.17089844,1.22167969-.06542969.53710938-.12207031,1.11132812-.17089844,1.72167969-.04931641.61035156-.09814453,1.18457031-.14697266,1.72265625-.06494141.89550781-.13037109,1.80371094-.1953125,2.72363281-.06542969.91992188-.11816406,1.77929688-.15869141,2.57617188-.04101562.79882812-.06103516,1.48242188-.06103516,2.05273438,0,.30957031.0078125.578125.02441406.80566406.01611328.22851562.04052734.39941406.07324219.51269531.04882812.09765625.20361328.19238281.46435547.28125.26025391.08984375.55761719.15917969.89160156.20800781.33349609.04882812.65087891.08105469.95263672.09765625.30078125.015625.52490234.015625.67138672,0l-.36621094.70800781c-.40722656-.03320312-.74951172-.06054688-1.02587891-.08496094-.27734375-.02441406-.53369141-.04980469-.76953125-.07421875-.23632812-.02441406-.50927734-.04003906-.81835938-.04882812-.30957031-.0078125-.70849609-.01171875-1.19677734-.01171875-.34228516,0-.78613281.01660156-1.33154297.04882812-.54589844.03320312-1.07910156.06933594-1.60009766.11035156-.52099609.04003906-.91992188.06835938-1.19677734.08496094Z"/><path class="e" d="M17.95410156,47.70029524c-.97753906,0-1.80419922-.22851562-2.47949219-.68359375-.67626953-.45605469-1.18896484-1.07519531-1.5390625-1.85644531-.35009766-.78222656-.52490234-1.65332031-.52490234-2.61425781,0-1.10644531.15429688-2.08398438.46386719-2.93066406.30908203-.84667969.74902344-1.546875,1.31933594-2.10058594.08105469-.06542969.28466797-.23242188.61035156-.50097656s.78955078-.63867188,1.39257812-1.11132812c.50439453-.40722656,1.20458984-.61132812,2.10058594-.61132812,1.05859375,0,1.94189453.23632812,2.65039062.70898438s1.24560547,1.11523438,1.61230469,1.9296875c.36621094.81445312.54931641,1.7421875.54931641,2.78417969,0,1.07519531-.14257812,2-.42724609,2.77246094-.28515625.77441406-.70458984,1.42089844-1.2578125,1.94238281-.21191406.16308594-.46875.37011719-.76953125.62304688-.30175781.25292969-.65576172.54101562-1.06298828.8671875-.61865234.52050781-1.49804688.78125-2.63769531.78125ZM18.78417969,46.40537336c.78173828,0,1.43701172-.23144531,1.96679688-.6953125.52880859-.46484375.93212891-1.05859375,1.20898438-1.78320312s.41503906-1.46972656.41503906-2.23535156c0-.87988281-.15869141-1.69824219-.47607422-2.45507812s-.76171875-1.37207031-1.33154297-1.84375c-.56982422-.47265625-1.22119141-.70898438-1.95410156-.70898438-.71679688,0-1.32714844.24023438-1.83203125.72070312s-.88330078,1.09960938-1.13574219,1.85644531-.37841797,1.55078125-.37841797,2.38183594c0,.81445312.13427734,1.58789062.40283203,2.3203125.26855469.73339844.66357422,1.32324219,1.18457031,1.77148438.52099609.44726562,1.1640625.67089844,1.9296875.67089844Z"/><path class="e" d="M30.41162109,47.84677961c-.01611328-.08105469-.08935547-.21191406-.21972656-.390625s-.29296875-.3828125-.48828125-.61035156c-.1796875-.21191406-.33007812-.40722656-.45214844-.58691406-.12207031-.17871094-.19970703-.34179688-.23193359-.48828125-.08154297-.390625-.21191406-.93652344-.39111328-1.63671875s-.38671875-1.45703125-.62255859-2.27148438c-.23632812-.81445312-.4765625-1.59960938-.72070312-2.35742188-.24414062-.75683594-.4765625-1.40429688-.69628906-1.94140625-.21972656-.53808594-.40283203-.86328125-.54931641-.97753906-.14697266-.12988281-.36669922-.22363281-.65966797-.28125-.29296875-.05664062-.56201172-.08496094-.80615234-.08496094-.17919922,0-.33349609.01660156-.46435547.04882812l-.12207031-.14648438.29345703-.5625c.04882812.01660156.22802734.03710938.53710938.06152344s.66357422.04882812,1.0625.07324219.75732422.04492188,1.07519531.06152344c.31738281.015625.50878906.02441406.57373047.02441406.50488281,0,1.05419922-.02050781,1.64892578-.06152344.59423828-.04003906,1.24169922-.1015625,1.94189453-.18359375l-.51269531.73339844c-.50537109,0-.94042969.05273438-1.30712891.15820312-.36621094.10644531-.54931641.29003906-.54931641.54980469-.03320312.45605469.11767578,1.31542969.45166016,2.57714844.33349609,1.26269531.875,2.984375,1.62451172,5.16699219.32568359-.66796875.63525391-1.31933594.92822266-1.95507812.29296875-.63476562.59423828-1.34277344.90380859-2.125.61865234-1.49804688.98486328-2.58886719,1.09912109-3.2734375-.17919922-.42285156-.33398438-.68359375-.46386719-.78125-.14697266-.12988281-.36669922-.22363281-.65966797-.28125-.29296875-.05664062-.56201172-.08496094-.80615234-.08496094-.17919922,0-.33398438.01660156-.46435547.04882812l-.12207031-.14648438.29345703-.5625c.04882812.01660156.22753906.03710938.53710938.06152344.30908203.02441406.66357422.04882812,1.0625.07324219s.75732422.04492188,1.07519531.06152344c.31738281.015625.50878906.02441406.57373047.02441406.50488281,0,1.05419922-.02050781,1.64892578-.06152344.59423828-.04003906,1.24169922-.1015625,1.94189453-.18359375l-.51269531.73339844c-.50488281,0-.94042969.05273438-1.30712891.15820312-.36621094.10644531-.54931641.29003906-.54931641.54980469-.03320312.45605469.11767578,1.31542969.45166016,2.57714844.33349609,1.26269531.875,2.984375,1.62451172,5.16699219.32568359-.66796875.63525391-1.31933594.92822266-1.95507812.29296875-.63476562.59423828-1.34277344.90380859-2.125.37451172-.91113281.65966797-1.67285156.85498047-2.28320312.1953125-.61132812.29296875-1.07910156.29296875-1.40527344,0-.27636719-.14648438-.46386719-.43945312-.56152344-.29345703-.09765625-.60302734-.14648438-.92822266-.14648438-.09765625,0-.19189453.00390625-.28125.01171875-.08935547.00878906-.17480469.02050781-.25634766.03710938l-.09765625-.14648438.41503906-.5625c.03271484,0,.23242188.01269531.59863281.03710938.36669922.02441406.77734375.04882812,1.23339844.07324219s.82226562.03710938,1.09960938.03710938c.42333984,0,.95263672-.02050781,1.58740234-.06152344.63525391-.04003906,1.17285156-.0859375,1.61230469-.13476562l-.43945312.66015625c-.22851562,0-.47265625.03222656-.73291016.09765625-.26074219.06542969-.54589844.1796875-.85498047.34179688-.83056641.50488281-1.88916016,2.15820312-3.17578125,4.95898438-1.13964844,2.41015625-1.91357422,4.4453125-2.3203125,6.10644531l-.41552734.14648438c-.01611328-.08105469-.08935547-.21191406-.21972656-.390625s-.29296875-.3828125-.48828125-.61035156c-.1796875-.21191406-.33007812-.40722656-.45214844-.58691406-.12207031-.17871094-.19970703-.34179688-.23193359-.48828125-.08154297-.42285156-.21972656-1.01367188-.41552734-1.77050781-.1953125-.7578125-.41943359-1.57617188-.67138672-2.45507812-.25292969-.87988281-.50927734-1.69335938-.76953125-2.44335938-.21191406.34277344-.41943359.72558594-.62304688,1.1484375-.20361328.42382812-.41943359.87109375-.64746094,1.34375-1.13964844,2.41015625-1.91357422,4.4453125-2.3203125,6.10644531l-.41552734.14648438Z"/><path class="e" d="M49.70947266,47.62705305c-1.70996094,0-2.88623047-.40625-3.52978516-1.22167969-.64306641-.81347656-.96484375-2.01855469-.96484375-3.61523438,0-.86230469.08544922-1.73339844.25683594-2.61328125.17089844-.87890625.45166016-1.64453125.84277344-2.29589844.92822266-1.64453125,2.65380859-2.46777344,5.17822266-2.46777344,1.46582031,0,2.54882812.35058594,3.24902344,1.05078125.66748047.66796875.95263672,1.57128906.85498047,2.7109375-.06542969.09863281-.16308594.22460938-.29296875.37890625-.13085938.15527344-.29345703.34667969-.48876953.57421875-.21191406.27734375-.39501953.49316406-.54980469.64746094-.15478516.15527344-.27246094.22363281-.35400391.20703125-.17919922-.015625-.37060547-.02734375-.57421875-.03613281-.20361328-.0078125-.41113281-.01269531-.62255859-.01269531-.375,0-.71679688.00488281-1.02587891.01269531-.30957031.00878906-.62744141.01171875-.95263672.01171875-.34228516,0-.74951172.00878906-1.22167969.02441406-.47265625.01660156-.91210938.03710938-1.31884766.06152344-.40722656.02441406-.69238281.04492188-.85498047.06152344-.04882812.65136719-.07324219,1.23730469-.07324219,1.75878906,0,1.25390625.22363281,2.19824219.67138672,2.83300781s1.29052734.953125,2.52832031.953125c2.14990234,0,3.49316406-.98535156,4.03076172-2.95605469.01611328-.08105469.02441406-.15429688.02441406-.21972656s.0078125-.11425781.02441406-.14648438l.73291016-.34179688c-.01660156.14648438-.04541016.36621094-.0859375.65917969s-.08544922.68359375-.13427734,1.17285156v.53710938c0,.1953125-.00830078.41503906-.02441406.65917969-.04882812.21191406-.17919922.39941406-.390625.5625-.375.35839844-.98144531.62207031-1.81982422.79394531-.83886719.17089844-1.87695312.25585938-3.11474609.25585938ZM49.09912109,40.0059593h.59814453c.22021484,0,.45214844-.0078125.69628906-.02441406.68408203-.015625,1.27392578-.04003906,1.77099609-.07324219.49658203-.03222656.89941406-.06542969,1.20898438-.09765625.26074219-.04882812.41552734-.28515625.46435547-.70898438,0-.87890625-.23632812-1.55859375-.70849609-2.0390625-.47265625-.48046875-1.14794922-.72070312-2.02734375-.72070312-1.70996094,0-2.82568359.78125-3.34667969,2.34472656-.06494141.22851562-.11816406.43164062-.15869141.61132812-.04101562.17871094-.07763672.3828125-.10986328.61035156.16259766.03320312.37841797.05761719.64746094.07324219.26855469.01660156.58984375.02441406.96484375.02441406Z"/><path class="e" d="M56.67089844,47.5293968l.41503906-.78125c.04931641.015625.1015625.02441406.15917969.02441406h.18310547c.42333984,0,.85498047-.09765625,1.29443359-.29296875.43994141-.19628906.72460938-.48925781.85498047-.87988281.06494141-.17871094.12597656-.50097656.18310547-.96484375s.11376953-1.00195312.17138672-1.61230469c.05664062-.61035156.10986328-1.22949219.15869141-1.85644531s.08544922-1.20019531.10986328-1.72167969.03662109-.91992188.03662109-1.19726562c0-.61914062-.03271484-1.07910156-.09765625-1.37988281-.06542969-.30175781-.23193359-.50097656-.50097656-.59863281-.26855469-.09765625-.70458984-.14648438-1.30664062-.14648438-.1953125,0-.36669922.0078125-.51318359.02441406s-.28515625.04882812-.41503906.09765625l.41503906-.73339844c.04882812.01660156.32128906.03710938.81835938.06152344.49658203.02441406,1.11962891.03710938,1.86865234.03710938.34228516,0,.65136719-.01269531.92822266-.03710938s.45605469-.03710938.53759766-.03710938c.24414062,0,.36621094.12304688.36621094.3671875,0,.04882812-.02832031.23632812-.08544922.56152344-.05712891.32617188-.12646484.65917969-.20751953,1.00195312.13037109-.13085938.31347656-.2890625.54980469-.4765625.23583984-.1875.484375-.38671875.74462891-.59863281.78173828-.5859375,1.61230469-.87988281,2.49169922-.87988281.83056641,0,1.43701172.18359375,1.81982422.54980469.38232422.36621094.57421875.91601562.57421875,1.64941406,0,.17871094-.07763672.36621094-.23193359.56152344-.15527344.1953125-.33007812.375-.52539062.53710938-.1953125.16308594-.35839844.28515625-.48876953.36621094l-.36621094-.12207031c.01611328-.06445312.02441406-.12988281.02441406-.1953125v-.1953125c0-.27636719-.04492188-.56933594-.13427734-.87890625-.08984375-.30957031-.24853516-.5703125-.4765625-.78222656-.22802734-.2109375-.55371094-.31738281-.97705078-.31738281-.40722656,0-.86328125.15917969-1.36767578.4765625-.50488281.31738281-.92822266.71289062-1.27050781,1.18457031-.24414062.32617188-.40722656.62304688-.48828125.89160156-.08154297.26855469-.12646484.578125-.13427734.92871094-.00878906.34960938-.02880859.80957031-.06103516,1.37988281-.01660156.50488281-.03320312,1.02539062-.04882812,1.56347656-.01660156.53710938-.02441406,1.04199219-.02441406,1.51464844v.5859375c0,.1796875.0078125.35058594.02441406.51269531.03222656.42382812.25634766.71289062.67138672.8671875.41552734.15527344.87548828.23242188,1.38037109.23242188.34179688,0,.66748047-.02441406.97705078-.07324219l-.43994141.73242188c-.40722656-.04882812-.91992188-.08984375-1.53857422-.12207031-.61914062-.03222656-1.35205078-.04882812-2.19873047-.04882812s-1.59619141.02050781-2.24707031.06152344c-.65185547.04003906-1.18896484.09277344-1.61230469.15820312Z"/><path class="e" d="M75.04003906,47.5293968l.39111328-.73242188c.71630859,0,1.27001953-.0859375,1.66064453-.25683594.39111328-.17089844.65136719-.42773438.78173828-.76953125.11376953-.32519531.22802734-.93652344.34228516-1.83203125.11376953-.89550781.21972656-2.06738281.31738281-3.51757812.11376953-1.64453125.19140625-3.06152344.23193359-4.25s.06103516-2.13378906.06103516-2.83398438c0-.65136719-.06494141-1.11523438-.1953125-1.39257812-.13037109-.27636719-.51269531-.41503906-1.14794922-.41503906-.29296875,0-.62695312.04882812-1.00146484.14648438l.390625-.73242188c.56982422.06542969,1.12744141.109375,1.67333984.13476562.54541016.02441406,1.07861328.03613281,1.60009766.03613281.68408203,0,1.36767578-.02441406,2.05175781-.07324219.22802734-.015625.45214844-.02832031.671875-.03710938.21972656-.0078125.42724609-.01171875.62255859-.01171875,1.62841797,0,2.85839844.29296875,3.68896484.87890625.66748047.47265625,1.00146484,1.18164062,1.00146484,2.12597656,0,.9609375-.29345703,1.80761719-.87939453,2.54003906-.40722656.55371094-.95263672.99316406-1.63671875,1.31933594,1.69335938.17871094,2.87402344.73242188,3.54199219,1.66113281.390625.53710938.5859375,1.28613281.5859375,2.24707031,0,.94433594-.17919922,1.77929688-.53710938,2.50390625-.35839844.72460938-.87939453,1.34765625-1.56347656,1.86816406-1.20507812.86328125-2.73583984,1.29492188-4.59228516,1.29492188-.08154297,0-.25634766-.00390625-.52539062-.01171875-.26855469-.00878906-.71679688-.02441406-1.34326172-.04882812-.62695312-.02441406-1.53515625-.04492188-2.72363281-.06152344-.70019531,0-1.85644531.07324219-3.46875.21972656ZM83.05224609,46.72373274c1.30273438,0,2.37744141-.39160156,3.22460938-1.17285156.96044922-.86328125,1.44091797-2.04394531,1.44091797-3.54199219,0-1.07519531-.30957031-1.90527344-.92822266-2.49121094-.63525391-.65136719-1.53076172-.97753906-2.68701172-.97753906h-2.19824219l.51269531-.73242188h.48876953c.53710938,0,1.10693359-.15527344,1.70996094-.46484375.61865234-.29296875,1.07470703-.68359375,1.36767578-1.171875.29345703-.48828125.43994141-1.01757812.43994141-1.58789062,0-.81445312-.28515625-1.453125-.85498047-1.91796875-.5703125-.46386719-1.27880859-.69628906-2.12548828-.69628906-.79785156,0-1.29443359.02539062-1.48974609.07421875-.43994141.09765625-.69238281.29296875-.75732422.5859375-.1953125,1.04199219-.36621094,2.66210938-.51318359,4.86132812l-.24414062,3.51757812c-.03271484.55371094-.06542969,1.19628906-.09765625,1.9296875-.03271484.73242188-.04882812,1.38378906-.04882812,1.95410156v.48828125c0,.14648438.0078125.27734375.02441406.390625.01611328.43945312.30126953.73339844.85498047.87988281.22802734.04882812.85498047.07324219,1.88085938.07324219Z"/><path class="e" d="M93.72705078,51.80381086c-.375,0-.76171875-.04492188-1.16064453-.13378906-.39892578-.08984375-.73681641-.21972656-1.01367188-.390625s-.41503906-.36328125-.41503906-.57421875c0-.5703125-.01220703-1.06738281-.03662109-1.49023438-.02441406-.42382812-.05273438-.765625-.08544922-1.02636719l.92822266-.24414062c.11376953.78222656.22753906,1.38476562.34179688,1.80761719.11376953.42382812.2890625.71679688.52539062.87988281.23583984.16210938.57373047.24414062,1.01367188.24414062.45556641,0,.8671875-.1796875,1.23339844-.53710938.36621094-.35839844.68408203-.80273438.95263672-1.33203125s.4765625-1.04589844.62304688-1.55078125c-.42382812-1.40039062-.79003906-2.6015625-1.09912109-3.60253906-.30957031-1.00195312-.56201172-1.80371094-.75732422-2.40625-.97705078-2.96386719-1.61230469-4.58398438-1.90527344-4.86132812-.16308594-.12988281-.39111328-.22363281-.68408203-.28125-.29296875-.05664062-.56201172-.08496094-.80615234-.08496094-.1953125,0-.35791016.01660156-.48876953.04882812l-.12207031-.14648438.29345703-.5625c.08154297.01660156.32958984.04101562.74462891.07421875.41552734.03222656.8671875.05664062,1.35595703.07324219.48876953.015625.89550781.02441406,1.22119141.02441406.56982422,0,1.15185547-.01269531,1.74658203-.03710938.59423828-.02441406,1.24169922-.07714844,1.94189453-.15917969l-.53710938.73339844h-.29345703c-.390625,0-.75683594.06054688-1.09912109.18261719-.34179688.12304688-.51269531.29785156-.51269531.52539062-.03320312.45605469.11767578,1.30371094.45166016,2.54101562.33349609,1.23730469.89990234,2.95507812,1.69775391,5.15429688.27685547-.48925781.59033203-1.10351562.94042969-1.84472656s.68798828-1.50195312,1.01367188-2.28417969c.32568359-.78125.59423828-1.49804688.80615234-2.14941406.21142578-.65136719.31738281-1.13183594.31738281-1.44140625,0-.27636719-.14257812-.46777344-.42724609-.57421875-.28515625-.10546875-.59033203-.15820312-.91601562-.15820312-.24414062,0-.45605469.02441406-.63525391.07324219l-.09765625-.14648438.43994141-.5625c.37402344.01660156.77734375.03710938,1.20898438.06152344.43115234.02441406.81396484.04492188,1.14794922.06152344.33349609.015625.54980469.02441406.64746094.02441406.50439453,0,1.07080078-.02050781,1.69775391-.06152344.62646484-.04003906,1.15185547-.0859375,1.57568359-.13476562l-.43994141.66015625c-.24414062,0-.49707031.03222656-.75732422.09765625-.26074219.06542969-.54541016.1796875-.85498047.34179688-.32568359.1953125-.66796875.53320312-1.02587891,1.01367188-.35839844.48046875-.71240234,1.05078125-1.0625,1.70996094-.35058594.65917969-.69238281,1.3515625-1.02587891,2.07617188-.33398438.72460938-.64746094,1.42089844-.94042969,2.08886719l-2.32080078,5.47167969c-.78173828,1.87207031-1.89697266,2.80859375-3.34619141,2.80859375Z"/></svg>