<?xml version="1.0" encoding="UTF-8"?><svg id="a" xmlns="http://www.w3.org/2000/svg" viewBox="0 0 534.59622581 433"><defs><style>.b{fill:#313b47;}</style></defs><path class="b" d="M526.59622581,66h-157V8c0-4.41827393-3.58172607-8-8-8h-3.65612793c-9.550354,0-18.06170654,6.02508545-21.23577881,15.03253174l-14.65332031,41.58416748c-.30102539.85412598-.45477295,1.75317383-.45477295,2.65875244v6.72454834h-1c-4.41827393,0-8,3.58172607-8,8v20c0,4.41827393,3.58172607,8,8,8h1v53c0,4.41827393,3.58172607,8,8,8h32c4.41827393,0,8-3.58172607,8-8v-53h157c4.41827393,0,8-3.58172607,8-8v-20c0-4.41827393-3.58172607-8-8-8Z"/><path class="b" d="M389.49881797,328.9395752c2.11053467-2.55969238,3.64257812-6.66143799,3.94506836-12.68762207.04370117-.87127686,1.08953857-1.28216553,1.7098999-.66882324,13.53027344,13.37567139,19.35919189,30.22338867,17.52441406,48.09484863-1.52539062,14.85778809-8.34185791,30.42236328-20.48718262,45.2947998-.59014893.72271729.02600098,1.79095459.94537354,1.63165283,19.69274902-3.41229248,34.6920166-16.44842529,44.02258301-34.36053467,19.39758301,10.49884033,37.33990479,21.5302124,37.33990479,24.75610352v29c0,1.65686035-1.34313965,3-3,3H99.49887901c-1.65686035,0-3-1.34313965-3-3v-9.66522217c-.00006104-10.8571167,6.5078125-20.65631104,16.51037598-24.87835693,34.23797607-14.45172119,66.51019287-28.48205566,84.39428711-39.42797852.02893066-.0177002.05627441-.03723145.0824585-.05871582,11.0602417-9.06689453,15.1852417-20.05487061,11.16107178-33.30023193-.12030029-.39605713-.49285889-.66949463-.90679932-.66949463h-47.24139404c-4.41827393,0-8-3.58172607-8-8v-13.74237061c0-.14776611-.11004639-.27227783-.25653076-.29174805C81.74448448,290.61920166,27.26377159,261.94580078.08109336,200.33374023c-.27587891-.62518311.18634033-1.33374023.86968994-1.33374023l151.25219727-.00006104c.16339111,0,.29589844-.13244629.29589844-.29589844v-21.1829834c0-1.39233398,1.12872314-2.52105713,2.52105713-2.52105713l370.77850342.00030518c4.06500244,0,7.49432373,3.04974365,7.94891357,7.08929443,1.09594727,9.73901367,1.43023682,18.07745361-.84692383,21.61395264-.02233887.034729-.05157471.06170654-.07000732.09869385-6.86541748,13.78485107-54.53826904,48.48974609-95.47412109,74.5177002-5.19622803-11.37158203-12.32879639-22.13250732-21.53649902-31.61584473-.73553467-.75756836-2.00634766.01965332-1.66119385,1.01751709,11.34790039,32.80718994-25.44384766,52.93572998-32.659729,21.27838135-1.67913818-16.77380371,5.47283936-16.574646,11-42,4.75592041-21.87738037-4.51812744-42.87597656-13.60461426-50.87316895-.59423828-.52294922-1.53082275-.15588379-1.64538574.62731934-5.00836182,34.23797607-12.95007324,34.45367432-50.75,88.24584961-24.9196167,35.46252441-23.29052734,86.87994385-6.29608154,109.25695801.62310791.82049561,1.97118507.26817932,1.78967285-.74597168-11.99359131-67.01098633,42.00640869-78.01098633,44.0748291-112.91845703.04547171-.76739832,1.12811279-.99627686,1.67852783-.45959473,11.68127441,11.39074707,10.55413818,33.59631348,4.75305176,54.86706543-3.70483398,13.58422852,9.93041992,22.51385498,16.99993896,13.9395752Z"/></svg>