<?xml version="1.0" encoding="UTF-8"?>
<svg id="a" xmlns="http://www.w3.org/2000/svg" xmlns:xlink="http://www.w3.org/1999/xlink" viewBox="0 0 485.9 77.8">
    <defs>
        <style>.d{fill:none;}.e{clip-path:url(#c);}.f{clip-path:url(#b);}</style>
        <clipPath id="b">
            <rect class="d" y="0" width="77.8" height="77.8"/>
        </clipPath>
        <clipPath id="c">
            <rect class="d" y="0" width="77.8" height="77.8"/>
        </clipPath>
    </defs>
    <path fill="#ffffff" d="M134.5,58.9c0,1.9-.4,3.8-1.2,5.4-.8,1.7-2.1,3.2-4,4.4-1.8,1.2-4.2,2.2-7.1,2.9-2.9.7-6.5,1.1-10.7,1.1s-4.7-.2-7-.5c-2.3-.4-4.4-.9-6.5-1.6-2.1-.7-3.9-1.5-5.7-2.5-1.7-1-3.2-2-4.5-3.2l3.4-4.1c2.6,2.2,5.6,3.9,9,5,3.4,1.1,7.2,1.7,11.3,1.7s7.8-.6,9.7-1.9c1.9-1.3,2.8-3,2.8-5.2s-.7-3.2-2.2-4.3c-1.5-1.2-4-2.3-7.6-3.4l-12.8-4.1c-4.2-1.4-7.4-3.1-9.6-5.2-2.2-2.1-3.2-4.8-3.2-8s.4-3.3,1.2-4.8c.8-1.6,2-2.9,3.7-4.1,1.7-1.2,3.8-2.1,6.4-2.8,2.6-.7,5.7-1,9.4-1s4.4.2,6.6.5c2.2.4,4.3.9,6.3,1.6,2,.7,3.9,1.5,5.6,2.5,1.7,1,3.2,2,4.5,3.2l-3.4,4.1c-2.6-2.2-5.5-3.9-8.6-5-3.2-1.1-6.8-1.7-10.9-1.7s-5.9.6-7.6,1.8c-1.7,1.2-2.5,2.6-2.5,4.3s.2,1.8.5,2.5c.3.7.8,1.4,1.6,2,.7.6,1.7,1.2,2.9,1.7,1.2.5,2.7,1.1,4.5,1.7l12.8,4.1c4.1,1.3,7.3,3,9.7,5.1,2.3,2.1,3.5,4.8,3.5,8Z"/>
    <path fill="#ffffff" d="M175.7,36.2h-15.2v35.2h-8.2v-35.2h-15.2v-4.2h38.6v4.2Z"/>
    <path fill="#ffffff" d="M201.3,32l16,39.4h-8.1l-3.7-9.6h-21.4l-3.7,9.6h-8.1l16-39.4h13ZM186.1,57.6h17.5l-8.4-20.8h-.6l-8.4,20.8Z"/>
    <path fill="#ffffff" d="M238.7,59.6v11.8h-8.2v-11.8l-18.3-27.6h9l13.2,20h.3l13.2-20h9l-18.3,27.6Z"/>
    <path fill="#ffffff" d="M271.6,29.2v16.2h24.7v5.1h-24.7v20.9h-9.8V24.1h42.6v5.1h-32.8Z"/>
    <path fill="#ffffff" d="M331,30.9c3.4,0,6.4.5,9.2,1.4,2.8.9,5.1,2.2,7.1,4,2,1.8,3.5,3.9,4.6,6.5,1.1,2.6,1.6,5.6,1.6,9s-.5,6.4-1.6,9c-1.1,2.6-2.6,4.8-4.6,6.5-2,1.8-4.3,3.1-7.1,4-2.8.9-5.8,1.4-9.2,1.4s-6.5-.4-9.2-1.4c-2.8-.9-5.2-2.2-7.1-4-2-1.8-3.5-3.9-4.6-6.5-1.1-2.6-1.6-5.6-1.6-9s.5-6.4,1.6-9c1.1-2.6,2.6-4.8,4.6-6.5,2-1.8,4.3-3.1,7.1-4,2.8-.9,5.9-1.4,9.2-1.4ZM331,34.8c-1.9,0-3.7.3-5.4,1s-3.1,1.7-4.4,3.1c-1.2,1.4-2.2,3.1-3,5.3-.7,2.1-1.1,4.6-1.1,7.5s.4,5.4,1.1,7.5c.7,2.1,1.7,3.9,3,5.3,1.2,1.4,2.7,2.4,4.4,3.1s3.5,1,5.4,1,3.7-.3,5.4-1c1.7-.7,3.1-1.7,4.4-3.1,1.2-1.4,2.2-3.1,3-5.3.7-2.1,1.1-4.6,1.1-7.5s-.4-5.4-1.1-7.5c-.7-2.1-1.7-3.9-3-5.3-1.2-1.4-2.7-2.4-4.4-3.1-1.7-.7-3.5-1-5.4-1Z"/>
    <path fill="#ffffff" d="M380.6,32c2.8,0,5.3.3,7.6.9,2.2.6,4.1,1.5,5.7,2.7s2.7,2.6,3.5,4.3c.8,1.7,1.2,3.7,1.2,5.8s-.8,5.5-2.3,7.6c-1.5,2.1-3.7,3.6-6.5,4.7l9.3,13.3h-9.3l-8.3-11.8h-13.1v11.8h-8.2V32h20.3ZM368.5,36.2v19.1h12.1c3,0,5.3-.8,6.9-2.3,1.6-1.6,2.4-4,2.4-7.2s-.8-5.7-2.4-7.2c-1.6-1.6-3.9-2.3-6.9-2.3h-12.1Z"/>
    <path fill="#ffffff" d="M425.6,30.9c3.4,0,6.6.6,9.7,1.7,3,1.2,5.6,2.7,7.8,4.7l-2.8,3.4c-2.1-2-4.4-3.4-6.7-4.3-2.3-.9-4.8-1.3-7.3-1.3s-3.7.3-5.3,1c-1.6.7-3,1.7-4.2,3-1.2,1.4-2.1,3.1-2.8,5.2-.7,2.1-1,4.6-1,7.5s.3,5.5,1,7.6c.7,2.1,1.6,3.9,2.8,5.2,1.2,1.4,2.7,2.4,4.4,3,1.7.7,3.6,1,5.6,1s3.1-.1,4.4-.5c1.2-.3,2.2-.7,3.1-1.1,1-.5,1.8-1,2.4-1.6v-10.7h-7.3v-3.7h15.5v15.5c-1.4,1.1-3,2.1-4.8,3-1.6.8-3.5,1.4-5.8,2-2.3.6-4.9.9-7.9.9s-6.4-.4-9.1-1.4c-2.7-.9-5-2.2-6.9-4-1.9-1.8-3.4-3.9-4.4-6.5-1-2.6-1.5-5.6-1.5-9s.5-6.4,1.5-9c1-2.6,2.4-4.8,4.3-6.5,1.9-1.8,4.1-3.1,6.8-4,2.6-.9,5.6-1.4,8.8-1.4Z"/>
    <path fill="#ffffff" d="M459.7,36.2v13h20.6v4.2h-20.6v13.8h26.2v4.2h-34.3V32h34.3v4.2h-26.2Z"/>
    <g class="f">
        <g class="e">
            <path fill="#ffffff" d="M23.4,33.3h52.7c.6,0,1.1.4,1.1,1,.2,1.4.2,2.6-.1,3.1,0,0,0,0,0,0-3.2,4.2-12.9,10.2-13,10.1-.6-1.2-1.9-3-2.8-3.8,0,0-.2,0-.2.1l.2,2.6c.1,1.3-.7,2.5-2,2.7-.8.2-1.7,0-2.4-1.1,0-.1-.2-.3-.2-.5-.1-.5-.1-.9,0-1.8,0,0,0,0,0,0,.7-1.9,1.2-3.9,1.4-6,.3-2.3-.6-4.4-2.2-6.2,0,0-.2,0-.2,0,0,2.8-2.4,6.7-6.2,11.3,0,0,0,0,0,0-3.7,5-5.5,10.5-2.1,17.3,0,.1.3,0,.3,0-1.5-7.8,6.1-11.7,6.4-16.5,0-.1.2-.2.2,0,3.7,3.6-1.8,10,1.9,10.6,0,0,0,0,0,0,1.1,0,1.8-.5,1.7-2.4,0-.1.1-.2.2-.1,4,3.5,3.3,9.4-.4,13.6,0,.1,0,.3.2.2,2.9-.6,4.6-1.9,6.2-4.5.2-.3,4.2,2.4,4.2,2.9v4.2c0,.2-.2.4-.4.4H14.6c-.2,0-.4-.2-.4-.4v-1.4c0-1.6.9-3,2.4-3.6,4.9-2.1,9.6-4.1,12.2-5.7,0,0,0,0,0,0,1.6-1.3,2.2-2.9,1.6-4.8,0,0,0,0-.1,0h-6.8c-.6,0-1.2-.5-1.2-1.2v-1.9c0,0,0-.1-.1-.1-10-1.3-17.7-5.4-21.6-13.9-.1-.3,0-.6.4-.6h21.2c0,0,.1,0,.1-.1v-2.2c0-.6.5-1.2,1.2-1.2"/>
            <path fill="#ffffff" d="M76.2,22h-29.7c-.6,0-1.2-.5-1.2-1.2v-2.9c0-.6.5-1.2,1.2-1.2h29.7c.6,0,1.2.5,1.2,1.2v2.9c0,.6-.5,1.2-1.2,1.2"/>
            <path fill="#ffffff" d="M47.8,30.8h4.6c.6,0,1.2-.5,1.2-1.2V8.5c0-.6-.5-1.2-1.2-1.2h-.5c-1.4,0-2.6.9-3.1,2.2l-2.1,6c0,.1,0,.3,0,.4v13.8c0,.6.5,1.2,1.2,1.2"/>
        </g>
    </g>
</svg>