<?xml version="1.0" encoding="UTF-8"?><svg id="a" xmlns="http://www.w3.org/2000/svg" viewBox="0 0 533.9 438"><defs><style>.b{fill:#313b47;}</style></defs><path class="b" d="M159.4,180h365.6c4.1,0,7.5,3,7.9,7.1,1.1,9.7,1.4,18.1-.9,21.6s0,0,0,0c-22.5,28.9-89.9,70.8-90.1,70.2-4-8-12.9-20.8-19.3-26.2-.6-.5-1.6,0-1.5.8l1.7,17.8c.8,8.8-4.9,17-13.6,18.7s-11.8-.6-16.8-7.6-1.2-2.1-1.4-3.2c-.7-3.3-1-6.4.4-12.3s0,0,0,0c4.5-13.4,8.1-27.3,10-42,1.8-16.1-4.1-30.2-15.2-43s-1.7-.3-1.7.6c.3,19.8-16.4,46.8-42.8,78.5,0,0,0,0,0,0-25.4,34.6-37.9,72.6-14.9,120,.5,1,2,.5,1.8-.6-10.1-53.9,42.6-81,44.7-114.5,0-.8,1-1.2,1.6-.6,25.7,25.3-12.4,69.3,13.4,73.5,0,0,.1,0,.2,0,7.6.6,12.3-3.7,12-16.9s1-1.3,1.6-.7c27.4,24.4,22.8,65.6-2.7,94.6s.6,1.8,1.4,1.3c20.1-4.3,32.1-13.3,43.1-31.3,1.5-2.4,29.5,16.3,29.5,20v29c0,1.7-1.3,3-3,3H98.3c-1.7,0-3-1.3-3-3v-9.7c0-10.9,6.5-20.7,16.5-24.9,34.3-14.5,66.6-28.5,84.5-39.4s0,0,0,0c11.1-9.1,15.2-20.1,11.2-33.3s-.5-.7-.9-.7h-47.3c-4.4,0-8-3.6-8-8v-13.2c0-.5-.3-.9-.8-.9C81.5,295.6,27.8,267.7.3,208.3c-.9-2,.5-4.3,2.7-4.3h147.4c.5,0,.9-.4.9-.9v-15.1c0-4.4,3.6-8,8-8Z"/><rect class="b" x="311.9" y="66" width="222" height="36" rx="8" ry="8"/><path class="b" d="M328.9,163h32c4.4,0,8-3.6,8-8V8c0-4.4-3.6-8-8-8h-3.7c-9.6,0-18.1,6-21.2,15l-14.7,41.6c-.3.9-.5,1.8-.5,2.7v95.7c0,4.4,3.6,8,8,8Z"/></svg>