<?xml version="1.0" encoding="UTF-8"?>
<svg id="Layer_1" xmlns="http://www.w3.org/2000/svg" version="1.1" viewBox="0 0 540 540">
  <!-- Generator: Adobe Illustrator 29.0.1, SVG Export Plug-In . SVG Version: 2.1.0 Build 192)  -->
  <path fill="#ffffff" d="M162.5,231h365.62c4.06,0,7.49,3.05,7.95,7.09,1.1,9.74,1.44,18.08-.85,21.62-.02.04-.05.07-.07.1-22.45,28.92-89.86,70.76-90.14,70.2-4-8-12.92-20.83-19.27-26.19-.64-.54-1.61-.02-1.53.82l1.68,17.8c.83,8.76-4.94,17.02-13.57,18.7-5.55,1.08-11.76-.55-16.77-7.57-.69-.97-1.18-2.08-1.44-3.24-.72-3.29-.95-6.44.39-12.27,0-.03.01-.06.02-.09,4.51-13.43,8.09-27.3,9.99-41.96,1.79-16.08-4.06-30.2-15.18-42.97-.59-.67-1.68-.25-1.67.64.34,19.78-16.36,46.77-42.79,78.48-.01.02-.03.03-.04.05-25.38,34.58-37.92,72.56-14.85,119.98.48.99,1.99.5,1.78-.59-10.1-53.86,42.56-81,44.68-114.52.05-.82,1.05-1.2,1.63-.62,25.69,25.31-12.38,69.29,13.35,73.54.05,0,.11.02.16.02,7.57.61,12.3-3.73,12.01-16.85-.02-.82.95-1.28,1.57-.73,27.45,24.38,22.84,65.58-2.71,94.56-.65.74.58,1.79,1.43,1.27,20.12-4.25,32.12-13.25,43.12-31.25,1.47-2.41,29.5,16.34,29.5,20v29c0,1.66-1.34,3-3,3H101.44c-1.66,0-3-1.34-3-3v-9.66c0-10.86,6.51-20.66,16.52-24.88,34.28-14.45,66.59-28.48,84.49-39.43.03-.02.06-.04.09-.07,11.07-9.07,15.2-20.05,11.17-33.3-.12-.4-.49-.67-.91-.67h-47.3c-4.42,0-8-3.58-8-8v-13.18c0-.47-.35-.86-.81-.93-69.1-9.27-122.75-37.19-150.28-96.62-.92-1.99.53-4.27,2.73-4.27h147.43c.52,0,.94-.42.94-.94v-15.06c0-4.42,3.58-8,8-8Z"/>
  <g>
    <rect fill="#ffffff" x="315" y="117" width="222" height="36" rx="8" ry="8"/>
    <path fill="#ffffff" d="M332,214h32c4.42,0,8-3.58,8-8V59c0-4.42-3.58-8-8-8h-3.66c-9.55,0-18.06,6.03-21.24,15.03l-14.65,41.58c-.3.85-.45,1.75-.45,2.66v95.72c0,4.42,3.58,8,8,8Z"/>
  </g>
</svg>