<?xml version="1.0" encoding="UTF-8"?><svg id="a" xmlns="http://www.w3.org/2000/svg" xmlns:xlink="http://www.w3.org/1999/xlink" viewBox="0 0 484.96401291 81"><defs><style>.d{fill:none;}.e{fill:#313b47;}.f{clip-path:url(#c);}.g{clip-path:url(#b);}</style><clipPath id="b"><rect class="d" width="81" height="81"/></clipPath><clipPath id="c"><rect class="d" width="81" height="81"/></clipPath></defs><path class="e" d="M137.61477929,60.14887621c0,1.93690288-.40552615,3.75008592-1.21657846,5.43886178-.81036497,1.68946319-2.1279813,3.15348134-3.95216166,4.3913671-1.82486769,1.23994776-4.18929136,2.22008385-7.09464568,2.94040828-2.90535432.71894976-6.47604646,1.08048663-10.7093271,1.08048663-2.38848031,0-4.71922469-.18008111-6.99360781-.54024332-2.27507045-.36153688-4.43741838-.87841089-6.48635645-1.55474603-2.05031274-.67496048-3.94253901-1.4970101-5.67599148-2.46477421-1.7341398-.96913877-3.23252457-2.03862808-4.49309231-3.21052993l2.13162234-2.55794681c.67728403-.81274084,1.86594211-.95201689,2.71728585-.32394431,2.22135872,1.63879104,4.72663572,2.92563769,7.51620281,3.86202721,3.42222833,1.14853255,7.1839989,1.72245515,11.28393704,1.72245515,4.54876624,0,7.76960616-.63028387,9.66183243-1.89153894,1.89222627-1.26056774,2.83799574-2.99539487,2.83799574-5.20310674,0-1.7107705-.74369372-3.15210667-2.22970651-4.32400852-1.48670012-1.17121452-4.00989759-2.31974706-7.56753041-3.44628497l-12.83799574-4.05388687c-4.2346553-1.35129562-7.43281325-3.07443811-9.59447385-5.16874012-2.16234793-2.09498935-3.24352189-4.7639013-3.24352189-8.00673586,0-1.66609389.3938415-3.27720118,1.18221184-4.83125988.787683-1.5540587,2.01594611-2.92734896,3.68272734-4.12124545,1.66609389-1.19320916,3.79407519-2.13897862,6.38531858-2.83799574,2.58986872-.69764245,5.70898344-1.04749467,9.35803148-1.04749467,2.20633721,0,4.40236442.18076844,6.58808166.54093065,2.18434257.36084954,4.27864458.87841089,6.28359337,1.5540587,2.00357413.67564781,3.87311843,1.49769744,5.60794556,2.46614888,1.73345247.96913877,3.23183724,2.03862808,4.49309231,3.20915527l-2.12739381,2.55287257c-.67608297.81129956-1.86893646.95918016-2.71431944.32623247-2.1861522-1.63679659-4.58110524-2.92335225-7.18523018-3.8585538-3.19884528-1.14853255-6.84720599-1.72314248-10.94576947-1.72314248-3.37823905,0-5.91243384.58560726-7.60120971,1.75682177-1.68946319,1.17190185-2.53419479,2.61255069-2.53419479,4.32400852,0,.9464568.15739913,1.76850643.47288473,2.46614888.31479827.69901711.8447316,1.35129562,1.58842532,1.95958485.74300639.60828923,1.72245515,1.17190185,2.93903361,1.68946319,1.21589113.51824868,2.72458588,1.07017664,4.5267716,1.65509657l12.77063716,4.05388687c4.09787614,1.30730634,7.3194034,3.01876418,9.66183243,5.13574816,2.3417417,2.11767132,3.51364355,4.79689326,3.51364355,8.04041515Z"/><path class="e" d="M178.77430915,37.45728229h-13.20241941c-1.1045695,0-2,.8954305-2,2v33.19142209h-8.16413499v-33.19142209c0-1.1045695-.8954305-2-2-2h-13.20310674v-4.22297065h38.56966115v4.22297065Z"/><path class="e" d="M204.3946267,33.23431164l16.04783834,39.41439274h-6.73953299c-.82522227,0-1.56571819-.50684283-1.86440102-1.27611545l-2.72546074-7.01956098c-.29868283-.76927262-1.03917875-1.27611545-1.86440102-1.27611545h-18.65871178c-.82526785,0-1.56579487.50689804-1.86444619,1.27623179l-2.72486635,7.01932829c-.29865132.76933375-1.03917833,1.27623179-1.86444619,1.27623179h-6.73944135l16.04715101-39.41439274h12.95071826ZM189.19220729,58.85394185h17.45480789l-8.4459413-20.83373428h-.56292529l-8.4459413,20.83373428Z"/><path class="e" d="M241.83774994,61.42749902v11.22120536h-8.16413499v-11.22120536c0-.39324175-.11592677-.77775776-.333285-1.10546873l-17.96625449-27.08771865h7.93494733c.67103977,0,1.29735845.33652309,1.66774409.89608439l12.63801241,19.09291829h.28180631l12.63937825-19.09299803c.37039368-.55951533.99668542-.89600465,1.6676913-.89600465h7.93363429l-17.96625449,27.08771865c-.21735823.32771096-.333285.71222698-.333285,1.10546873Z"/><path class="e" d="M274.66474836,32.41899787v14.21623479h24.66148876v5.06770225h-22.66148876c-1.1045695,0-2,.8954305-2,2v18.94576947h-9.79723692V25.35129562h42.56649942v5.06770225h-30.76926249c-1.1045695,0-2,.8954305-2,2Z"/><path class="e" d="M330.12313038,32.10846106c3.37892639,0,6.4471785.45020276,9.20613101,1.35129562,2.75895251.90040553,5.12337618,2.2338305,7.09464568,3.9975256,1.9712695,1.76506976,3.4998969,3.94116434,4.58863152,6.53172039,1.08873462,2.58986872,1.63310193,5.57426627,1.63310193,8.95250533s-.54436731,6.36263661-1.63310193,8.95250533c-1.08873462,2.59055605-2.61736202,4.76802529-4.58863152,6.53172039-1.9712695,1.76506976-4.33569317,3.09712008-7.09464568,3.9975256-2.75895251.90178019-5.82720462,1.35129562-9.20613101,1.35129562s-6.45680115-.44951543-9.2336243-1.35129562c-2.77957248-.90040553-5.15224414-2.23245584-7.12351364-3.9975256-1.96989484-1.7636951-3.49027425-3.94116434-4.56113822-6.53172039-1.06948931-2.58986872-1.60423397-5.57426627-1.60423397-8.95250533s.53474466-6.36263661,1.60423397-8.95250533c1.07086398-2.59055605,2.59124338-4.76665063,4.56113822-6.53172039,1.9712695-1.7636951,4.34394116-3.09712008,7.12351364-3.9975256,2.77682315-.90109286,5.85469792-1.35129562,9.2336243-1.35129562ZM330.12313038,36.0496254c-1.91490824,0-3.7074713.33816757-5.37768919,1.01381538s-3.12461338,1.70802117-4.36318647,3.09643274c-1.2385731,1.38909891-2.22420785,3.14454602-2.95552959,5.26496666-.73269641,2.12110798-1.09835728,4.62643481-1.09835728,7.51666781,0,2.89092034.36566087,5.3969345,1.09835728,7.51666781.73132174,2.12110798,1.71695649,3.87655509,2.95552959,5.26496666,1.2385731,1.38909891,2.69296859,2.42078493,4.36318647,3.09643274s3.46278095,1.01381538,5.37768919,1.01381538,3.70609664-.33816757,5.37768919-1.01381538c1.66884322-.67564781,3.12461338-1.70733384,4.36318647-3.09643274,1.2385731-1.38841157,2.22420785-3.14385868,2.95552959-5.26496666.73269641-2.11973332,1.09835728-4.62574747,1.09835728-7.51666781,0-2.89023301-.36566087-5.39555983-1.09835728-7.51666781-.73132174-2.12042065-1.71695649-3.87586776-2.95552959-5.26496666-1.2385731-1.38841157-2.69434325-2.42078493-4.36318647-3.09643274-1.67159255-.67564781-3.46278095-1.01381538-5.37768919-1.01381538Z"/><path class="e" d="M379.67292761,33.23431164c2.81531377,0,5.33919857.30998694,7.57302907.92927349,2.23245584.61928655,4.11849612,1.52037941,5.65812083,2.70259124s2.72183655,2.627672,3.54801017,4.33569317c.82479896,1.70802117,1.2385731,3.65111004,1.2385731,5.82720462,0,3.00364286-.75194171,5.53783765-2.25170115,7.60189704-1.50250876,2.06474672-3.6607327,3.64148739-6.47604646,4.72953468l9.29136023,13.2881985h-9.29136023l-8.27685752-11.82418036h-11.11980205c-1.1045695,0-2,.8954305-2,2v9.82418036h-8.16413499v-39.41439274h20.27080899ZM367.56625361,39.45728229v17.14427108h12.106674c2.96515224,0,5.25534401-.77874768,6.86920063-2.33693037,1.61385662-1.55680803,2.42078493-3.96934497,2.42078493-7.23554883,0-3.26551653-.80692831-5.67667881-2.42078493-7.2348615-1.61385662-1.55749536-3.90404839-2.33693037-6.86920063-2.33693037h-10.106674c-1.1045695,0-2,.8954305-2,2Z"/><path class="e" d="M424.71657322,32.10846106c3.41466767,0,6.64375558.5821706,9.6845144,1.74513712,3.04075882,1.16434119,5.63062753,2.74039453,7.76960616,4.72953468l-2.81531377,3.37892639c-2.13897862-1.98914015-4.38243178-3.42497766-6.72761015-4.30751254-2.34655303-.88184755-4.79620592-1.32311499-7.34895869-1.32311499-1.91353358,0-3.67860334.32854492-5.29245996.98494742-1.61385662.65708983-3.01189085,1.66128256-4.19410269,3.01257818-1.1835865,1.35129562-2.10323734,3.06893945-2.75895251,5.15224414-.65708983,2.08330469-.98563475,4.57007354-.98563475,7.46030655,0,2.96583958.33816757,5.50896969,1.01312805,7.62939034.67633514,2.12110798,1.61385662,3.86693244,2.81531377,5.23678603,1.20145714,1.37054093,2.65585264,2.38435631,4.36318647,3.04007148,1.7087085.6584645,3.57550347.98563475,5.60313424.98563475,1.68946319,0,3.14385868-.14983848,4.36318647-.4508901,1.21932779-.29967695,2.24345316-.65571517,3.06962678-1.06948931.97463743-.45020276,1.78156574-.97532476,2.42078493-1.57674067v-8.69764245c0-1.1045695-.8954305-2-2-2h-5.32009073v-3.66004536h15.48422572v15.48422572c-1.38841157,1.12585057-3.00364286,2.12042065-4.84156987,2.98371022-1.57674067.75194171-3.51914221,1.42690219-5.82857928,2.02763077-2.30806241.59935391-4.9460444.90040553-7.91119665.90040553-3.37755172,0-6.41831054-.44951543-9.12090178-1.35129562-2.70259124-.90040553-5.01202832-2.23245584-6.92556189-3.9975256-1.91490824-1.7636951-3.37892639-3.94116434-4.39205444-6.53172039-1.01312805-2.58986872-1.52037941-5.57426627-1.52037941-8.95250533s.50725136-6.36263661,1.52037941-8.95250533c1.01312805-2.59055605,2.4496529-4.76665063,4.30682521-6.53172039,1.85854698-1.7636951,4.11024813-3.09712008,6.75785277-3.9975256,2.64622998-.90109286,5.58251426-1.35129562,8.81160217-1.35129562Z"/><path class="e" d="M458.78077008,39.45728229v10.95071826h20.5526153v4.22297065h-18.5526153c-1.1045695,0-2,.8954305-2,2v11.79476253h26.18324283v4.22297065h-34.34737783v-39.41439274h34.34737783v4.22297065h-24.18324283c-1.1045695,0-2,.8954305-2,2Z"/><g class="g"><g class="f"><path class="e" d="M79.43961182,17.925h-23.55v-8.7c0-.66269989-.53730011-1.2-1.2-1.2h-.54840088c-1.43249817,0-2.70930176.90374908-3.18539886,2.25494843l-2.19794769,6.23760223c-.04515381.12810059-.06825256.26294861-.06825256.39869843v1.00875092h-.15c-.66269989,0-1.2.53730011-1.2,1.2v3c0,.66269989.53730011,1.2,1.2,1.2h.15v7.95c0,.66269989.53730011,1.2,1.2,1.2h4.8c.66269989,0,1.2-.53730011,1.2-1.2v-7.95h23.55c.66270447,0,1.2-.53730011,1.2-1.2v-3c0-.66269989-.53729553-1.2-1.2-1.2"/><path class="e" d="M58.87498627,57.36594086c.31664886-.38399963.54645081-.99914932.5917511-1.90320053.00660095-.13065033.16349945-.19229965.25649872-.10019989,2.02949982,2.00625,2.90385132,4.53345108,2.62859802,7.21410027-.22874908,2.22870026-1.25114594,4.56345062-3.07304993,6.79424973-.08849945.10844994.00390015.26865005.14190216.24480057,2.95379791-.51180038,5.20379791-2.46734962,6.60330048-5.15415001,2.90970154,1.57485008,5.60099945,3.22964973,5.60099945,3.71339951v4.35c0,.2485508-.20144806.45-.45.45H15.37498627c-.24855194,0-.45-.2014492-.45-.45v-1.44975014c0-1.62854919.97619934-3.09839973,2.47650146-3.73169975,5.1356987-2.16779938,9.97664795-4.27229919,12.65924835-5.91419907.00435104-.00270081.00839996-.00555038.01230011-.00885086,1.65899963-1.3600502,2.27774963-3.0082489,1.67414932-4.99500046-.01799927-.05939941-.07394943-.10049973-.13604965-.10049973h-7.0861496c-.66269989,0-1.2-.53714905-1.2-1.2v-2.06130066c0-.02219925-.01650009-.04079819-.03839951-.04379883-10.57470016-1.40190125-18.7468483-5.70300064-22.82430038-14.94479828-.04140015-.09375.02805176-.20010223.13049927-.20010223h22.68779984c.02460022,0,.04440079-.01979828.04440079-.0443985v-3.17745209c0-.20879974.16934967-.37814941.37814941-.37814941l55.61685333.00015106c.60975037,0,1.12410278.45735168,1.19234619,1.06334839.16424561,1.46085205.2144989,2.71155396-.12704773,3.24210205-.00345154.00525055-.00780029.00929718-.0105011.01484985-1.02989502,2.06775055-8.18085022,7.27334747-14.32125092,11.17754974-.77939758-1.70565033-1.84920044-3.31980057-3.23039703-4.74225082-.11040344-.11369934-.30090179.00284958-.24915161.15254974,1.70219879,4.92105103-3.81660004,7.9404007-4.89900055,3.19169998-.25184784-2.51594925.82094879-2.48610077,1.65-6.3.71340179-3.28154755-.67770081-6.43140106-2.04075165-7.63095245-.08909912-.07844696-.22949982-.0233963-.24674835.09420319-.75119934,5.13570099-1.94250183,5.16795044-7.6125,13.23674927-3.73800201,5.31944962-3.49350128,13.03200073-.9443985,16.38855057.09344788.12314987.29565125.04034958.2684967-.11190033-1.79909821-10.05165024,6.30090179-11.70165024,6.61110077-16.93769989.00690308-.11504974.16934967-.14940033.25185242-.06900101,1.75214996,1.70865097,1.58309784,5.03955231.71294861,8.23005066-.55574799,2.03775101,1.4894989,3.37710114,2.55,2.09100037"/></g></g></svg>