<?xml version="1.0" encoding="UTF-8"?><svg id="a" xmlns="http://www.w3.org/2000/svg" xmlns:xlink="http://www.w3.org/1999/xlink" viewBox="0 0 485 81"><defs><style>.d{fill:none;}.e{fill:#313b47;}.f{clip-path:url(#c);}.g{clip-path:url(#b);}</style><clipPath id="b"><rect class="d" width="81" height="81"/></clipPath><clipPath id="c"><rect class="d" width="81" height="81"/></clipPath></defs><path class="e" d="M137.6,60.1c0,1.9-.4,3.8-1.2,5.4-.8,1.7-2.1,3.2-4,4.4-1.8,1.2-4.2,2.2-7.1,2.9-2.9.7-6.5,1.1-10.7,1.1s-4.7-.2-7-.5c-2.3-.4-4.4-.9-6.5-1.6-2.1-.7-3.9-1.5-5.7-2.5-1.7-1-3.2-2-4.5-3.2l2.1-2.6c.7-.8,1.9-1,2.7-.3,2.2,1.6,4.7,2.9,7.5,3.9,3.4,1.1,7.2,1.7,11.3,1.7s7.8-.6,9.7-1.9c1.9-1.3,2.8-3,2.8-5.2s-.7-3.2-2.2-4.3c-1.5-1.2-4-2.3-7.6-3.4l-12.8-4.1c-4.2-1.4-7.4-3.1-9.6-5.2-2.2-2.1-3.2-4.8-3.2-8s.4-3.3,1.2-4.8c.8-1.6,2-2.9,3.7-4.1,1.7-1.2,3.8-2.1,6.4-2.8,2.6-.7,5.7-1,9.4-1s4.4.2,6.6.5c2.2.4,4.3.9,6.3,1.6,2,.7,3.9,1.5,5.6,2.5,1.7,1,3.2,2,4.5,3.2l-2.1,2.6c-.7.8-1.9,1-2.7.3-2.2-1.6-4.6-2.9-7.2-3.9-3.2-1.1-6.8-1.7-10.9-1.7s-5.9.6-7.6,1.8c-1.7,1.2-2.5,2.6-2.5,4.3s.2,1.8.5,2.5c.3.7.8,1.4,1.6,2,.7.6,1.7,1.2,2.9,1.7,1.2.5,2.7,1.1,4.5,1.7l12.8,4.1c4.1,1.3,7.3,3,9.7,5.1,2.3,2.1,3.5,4.8,3.5,8Z"/><path class="e" d="M178.8,37.5h-13.2c-1.1,0-2,.9-2,2v33.2h-8.2v-33.2c0-1.1-.9-2-2-2h-13.2v-4.2h38.6v4.2Z"/><path class="e" d="M204.4,33.2l16,39.4h-6.7c-.8,0-1.6-.5-1.9-1.3l-2.7-7c-.3-.8-1-1.3-1.9-1.3h-18.7c-.8,0-1.6.5-1.9,1.3l-2.7,7c-.3.8-1,1.3-1.9,1.3h-6.7l16-39.4h13ZM189.2,58.9h17.5l-8.4-20.8h-.6l-8.4,20.8Z"/><path class="e" d="M241.8,61.4v11.2h-8.2v-11.2c0-.4-.1-.8-.3-1.1l-18-27.1h7.9c.7,0,1.3.3,1.7.9l12.6,19.1h.3l12.6-19.1c.4-.6,1-.9,1.7-.9h7.9l-18,27.1c-.2.3-.3.7-.3,1.1Z"/><path class="e" d="M274.7,32.4v14.2h24.7v5.1h-22.7c-1.1,0-2,.9-2,2v18.9h-9.8V25.4h42.6v5.1h-30.8c-1.1,0-2,.9-2,2Z"/><path class="e" d="M330.1,32.1c3.4,0,6.4.5,9.2,1.4,2.8.9,5.1,2.2,7.1,4,2,1.8,3.5,3.9,4.6,6.5,1.1,2.6,1.6,5.6,1.6,9s-.5,6.4-1.6,9c-1.1,2.6-2.6,4.8-4.6,6.5-2,1.8-4.3,3.1-7.1,4-2.8.9-5.8,1.4-9.2,1.4s-6.5-.4-9.2-1.4c-2.8-.9-5.2-2.2-7.1-4-2-1.8-3.5-3.9-4.6-6.5-1.1-2.6-1.6-5.6-1.6-9s.5-6.4,1.6-9c1.1-2.6,2.6-4.8,4.6-6.5,2-1.8,4.3-3.1,7.1-4,2.8-.9,5.9-1.4,9.2-1.4ZM330.1,36c-1.9,0-3.7.3-5.4,1s-3.1,1.7-4.4,3.1c-1.2,1.4-2.2,3.1-3,5.3-.7,2.1-1.1,4.6-1.1,7.5s.4,5.4,1.1,7.5c.7,2.1,1.7,3.9,3,5.3,1.2,1.4,2.7,2.4,4.4,3.1s3.5,1,5.4,1,3.7-.3,5.4-1c1.7-.7,3.1-1.7,4.4-3.1,1.2-1.4,2.2-3.1,3-5.3.7-2.1,1.1-4.6,1.1-7.5s-.4-5.4-1.1-7.5c-.7-2.1-1.7-3.9-3-5.3-1.2-1.4-2.7-2.4-4.4-3.1-1.7-.7-3.5-1-5.4-1Z"/><path class="e" d="M379.7,33.2c2.8,0,5.3.3,7.6.9,2.2.6,4.1,1.5,5.7,2.7s2.7,2.6,3.5,4.3c.8,1.7,1.2,3.7,1.2,5.8s-.8,5.5-2.3,7.6c-1.5,2.1-3.7,3.6-6.5,4.7l9.3,13.3h-9.3l-8.3-11.8h-11.1c-1.1,0-2,.9-2,2v9.8h-8.2v-39.4h20.3ZM367.6,39.5v17.1h12.1c3,0,5.3-.8,6.9-2.3,1.6-1.6,2.4-4,2.4-7.2s-.8-5.7-2.4-7.2c-1.6-1.6-3.9-2.3-6.9-2.3h-10.1c-1.1,0-2,.9-2,2Z"/><path class="e" d="M424.7,32.1c3.4,0,6.6.6,9.7,1.7,3,1.2,5.6,2.7,7.8,4.7l-2.8,3.4c-2.1-2-4.4-3.4-6.7-4.3-2.3-.9-4.8-1.3-7.3-1.3s-3.7.3-5.3,1c-1.6.7-3,1.7-4.2,3-1.2,1.4-2.1,3.1-2.8,5.2-.7,2.1-1,4.6-1,7.5s.3,5.5,1,7.6c.7,2.1,1.6,3.9,2.8,5.2,1.2,1.4,2.7,2.4,4.4,3,1.7.7,3.6,1,5.6,1s3.1-.1,4.4-.5c1.2-.3,2.2-.7,3.1-1.1,1-.5,1.8-1,2.4-1.6v-8.7c0-1.1-.9-2-2-2h-5.3v-3.7h15.5v15.5c-1.4,1.1-3,2.1-4.8,3-1.6.8-3.5,1.4-5.8,2-2.3.6-4.9.9-7.9.9s-6.4-.4-9.1-1.4c-2.7-.9-5-2.2-6.9-4-1.9-1.8-3.4-3.9-4.4-6.5-1-2.6-1.5-5.6-1.5-9s.5-6.4,1.5-9c1-2.6,2.4-4.8,4.3-6.5,1.9-1.8,4.1-3.1,6.8-4,2.6-.9,5.6-1.4,8.8-1.4Z"/><path class="e" d="M458.8,39.5v11h20.6v4.2h-18.6c-1.1,0-2,.9-2,2v11.8h26.2v4.2h-34.3v-39.4h34.3v4.2h-24.2c-1.1,0-2,.9-2,2Z"/><g class="g"><g class="f"><path class="e" d="M79.4,17.9h-23.6v-8.7c0-.7-.5-1.2-1.2-1.2h-.5c-1.4,0-2.7.9-3.2,2.3l-2.2,6.2c0,.1,0,.3,0,.4v1h-.1c-.7,0-1.2.5-1.2,1.2v3c0,.7.5,1.2,1.2,1.2h.1v7.9c0,.7.5,1.2,1.2,1.2h4.8c.7,0,1.2-.5,1.2-1.2v-7.9h23.6c.7,0,1.2-.5,1.2-1.2v-3c0-.7-.5-1.2-1.2-1.2"/><path class="e" d="M58.9,57.4c.3-.4.5-1,.6-1.9,0-.1.2-.2.3-.1,2,2,2.9,4.5,2.6,7.2-.2,2.2-1.3,4.6-3.1,6.8,0,.1,0,.3.1.2,3-.5,5.2-2.5,6.6-5.2,2.9,1.6,5.6,3.2,5.6,3.7v4.4c0,.2-.2.5-.4.5H15.4c-.2,0-.5-.2-.5-.5v-1.4c0-1.6,1-3.1,2.5-3.7,5.1-2.2,10-4.3,12.7-5.9,0,0,0,0,0,0,1.7-1.4,2.3-3,1.7-5,0,0,0-.1-.1-.1h-7.1c-.7,0-1.2-.5-1.2-1.2v-2.1s0,0,0,0c-10.6-1.4-18.7-5.7-22.8-14.9,0,0,0-.2.1-.2h22.7s0,0,0,0v-3.2c0-.2.2-.4.4-.4h55.6c.6,0,1.1.5,1.2,1.1.2,1.5.2,2.7-.1,3.2,0,0,0,0,0,0-1,2.1-8.2,7.3-14.3,11.2-.8-1.7-1.8-3.3-3.2-4.7-.1-.1-.3,0-.2.2,1.7,4.9-3.8,7.9-4.9,3.2-.3-2.5.8-2.5,1.6-6.3.7-3.3-.7-6.4-2-7.6,0,0-.2,0-.2,0-.8,5.1-1.9,5.2-7.6,13.2-3.7,5.3-3.5,13-.9,16.4,0,.1.3,0,.3-.1-1.8-10.1,6.3-11.7,6.6-16.9,0-.1.2-.1.3,0,1.8,1.7,1.6,5,.7,8.2-.6,2,1.5,3.4,2.6,2.1"/></g></g></svg>